<svg width="29" height="29" viewBox="0 0 29 29" fill="none" xmlns="http://www.w3.org/2000/svg">
<path d="M10.6222 7.14534C10.9281 6.75616 11.081 6.56156 11.2526 6.44862C11.7421 6.12631 12.4283 6.15427 13.014 6.52037C13.2192 6.64866 13.4286 6.85801 13.8473 7.27672L21.5929 15.0224C22.0117 15.4411 22.221 15.6505 22.3493 15.8557C22.7154 16.4414 22.7434 17.1276 22.4211 17.6171C22.3081 17.7886 22.1135 17.9415 21.7243 18.2474C20.8324 18.9484 19.9493 18.9366 18.845 18.3347L15.6634 16.6004C14.5759 16.0075 14.032 15.7111 13.5953 15.2744C13.1586 14.8377 12.8622 14.2938 12.2693 13.2062L10.535 10.0247C9.93301 8.92043 9.92127 8.03729 10.6222 7.14534Z" stroke="black" stroke-opacity="0.7" stroke-width="1.25"/>
<path d="M10.0379 8.77065L8.58125 9.99598C5.97022 12.1924 4.66467 13.2907 4.56197 14.7233C4.45934 16.1557 5.60411 17.3005 7.89366 19.5901L9.27959 20.976C11.5691 23.2656 12.7139 24.4103 14.1464 24.3077C15.579 24.205 16.6772 22.8995 18.8737 20.2884L20.099 18.8318" stroke="black" stroke-opacity="0.7" stroke-width="1.25" stroke-linecap="round" stroke-linejoin="round"/>
<path d="M20.0771 12.9173L20.1877 12.7157C20.7386 11.711 21.0141 11.2086 20.9665 10.7161C20.9189 10.2236 20.5602 9.86493 19.8428 9.14746L19.7222 9.02689C19.0047 8.30942 18.646 7.95074 18.1535 7.90313C17.661 7.85552 17.1587 8.13101 16.154 8.68198L15.9523 8.79255" stroke="black" stroke-opacity="0.7" stroke-width="1.25"/>
</svg>
