<svg width="16" height="17" viewBox="0 0 16 17" fill="none" xmlns="http://www.w3.org/2000/svg">
<path d="M13 4.1665L12.5869 10.8499C12.4813 12.5574 12.4285 13.4112 12.0005 14.0251C11.7889 14.3286 11.5165 14.5847 11.2005 14.7772C10.5614 15.1665 9.706 15.1665 7.99513 15.1665C6.28208 15.1665 5.42553 15.1665 4.78603 14.7764C4.46987 14.5836 4.19733 14.327 3.98579 14.023C3.55792 13.4082 3.5063 12.5532 3.40307 10.8433L3 4.1665" stroke="#808080" stroke-width="1.5" stroke-linecap="round"/>
<path d="M2 4.16683H14M10.7038 4.16683L10.2487 3.22798C9.9464 2.60434 9.7952 2.29251 9.53447 2.09804C9.47667 2.0549 9.4154 2.01652 9.35133 1.9833C9.0626 1.8335 8.71607 1.8335 8.023 1.8335C7.31253 1.8335 6.95733 1.8335 6.66379 1.98958C6.59873 2.02417 6.53665 2.0641 6.47819 2.10894C6.21443 2.3113 6.06709 2.63453 5.77241 3.281L5.36861 4.16683" stroke="#808080" stroke-width="1.5" stroke-linecap="round"/>
<path d="M6.33325 11.5V7.5" stroke="#808080" stroke-width="1.5" stroke-linecap="round"/>
<path d="M9.66675 11.5V7.5" stroke="#808080" stroke-width="1.5" stroke-linecap="round"/>
</svg>
