<svg width="16" height="17" viewBox="0 0 16 17" fill="none" xmlns="http://www.w3.org/2000/svg">
<path d="M11.2973 2.61553C11.6888 2.22402 11.8845 2.02826 12.1014 1.93465C12.4139 1.79978 12.7681 1.79978 13.0805 1.93465C13.2973 2.02826 13.4931 2.22402 13.8846 2.61553C14.2761 3.00704 14.4719 3.2028 14.5655 3.41966C14.7004 3.7321 14.7004 4.08632 14.5655 4.39876C14.4719 4.61562 14.2761 4.81138 13.8846 5.20289L10.5369 8.55063C9.71213 9.37543 9.29973 9.78783 8.7832 10.0322C8.26667 10.2765 7.68627 10.3338 6.52549 10.4483L6 10.5002L6.05185 9.9747C6.16639 8.8139 6.22366 8.2335 6.46801 7.71696C6.71233 7.20043 7.12473 6.78805 7.94953 5.96326L11.2973 2.61553Z" stroke="#808080" stroke-width="1.5" stroke-linejoin="round"/>
<path d="M3.99992 10.5H2.49992C1.85559 10.5 1.33325 11.0223 1.33325 11.6667C1.33325 12.311 1.85559 12.8333 2.49992 12.8333H8.83325C9.47758 12.8333 9.99992 13.3557 9.99992 14C9.99992 14.6443 9.47758 15.1667 8.83325 15.1667H7.33325" stroke="#808080" stroke-width="1.5" stroke-linecap="round" stroke-linejoin="round"/>
</svg>
