<svg width="28" height="28" viewBox="0 0 28 28" fill="none" xmlns="http://www.w3.org/2000/svg">
<path d="M15.0422 6.46035L13.4835 6.31872C11.0831 6.1006 9.88287 5.99154 9.46785 6.71037C9.05284 7.42919 9.74739 8.41406 11.1365 10.3838L12.0385 11.6629C12.9127 12.9024 13.3498 13.5223 13.9839 13.8884C14.618 14.2545 15.3733 14.3231 16.8839 14.4604L18.4426 14.602C20.843 14.8201 22.0432 14.9292 22.4582 14.2104C22.8732 13.4915 22.1787 12.5067 20.7896 10.5369L19.8876 9.25786C19.0134 8.01827 18.5763 7.39843 17.9422 7.03235C17.3081 6.66627 16.5528 6.5976 15.0422 6.46035Z" stroke="black" stroke-opacity="0.7" stroke-width="1.2" stroke-linecap="round" stroke-linejoin="round"/>
<path d="M20.4937 17.2597C20.5129 17.462 20.4776 17.641 20.3827 17.8054C19.9736 18.5139 18.777 18.3987 16.3837 18.1681L14.8297 18.0183C13.3237 17.8732 12.5705 17.8007 11.9365 17.4346C11.3024 17.0685 10.863 16.4525 9.98428 15.2208L9.07761 13.9499C7.68131 11.9926 6.98319 11.0139 7.39227 10.3054C7.48719 10.141 7.62452 10.0209 7.80931 9.93636" stroke="black" stroke-opacity="0.7" stroke-width="1.2" stroke-linecap="round" stroke-linejoin="round"/>
<path d="M18.0435 20.8179C18.2055 21.2299 18.218 21.5546 18.0552 21.8365C17.6461 22.5451 16.4496 22.4298 14.0563 22.1992L12.5023 22.0495C10.9962 21.9044 10.2431 21.8318 9.60906 21.4657C8.97498 21.0996 8.53556 20.4837 7.65688 19.252L6.7502 17.981C5.35391 16.0237 4.65574 15.0451 5.06487 14.3365C5.22762 14.0546 5.51503 13.9031 5.95285 13.8374" stroke="black" stroke-opacity="0.7" stroke-width="1.2" stroke-linecap="round" stroke-linejoin="round"/>
</svg>
