<svg width="27" height="34" viewBox="0 0 27 34" fill="none" xmlns="http://www.w3.org/2000/svg">
<path fill-rule="evenodd" clip-rule="evenodd" d="M16.2871 33.3409V28.4932C13.0746 28.431 10.6933 27.3325 8.57859 25.143C5.22587 21.672 4.37717 16.8499 6.24642 12.2877C6.50944 11.6433 6.89872 10.9806 7.21786 10.4863C7.60715 9.88951 8.7294 8.5714 9.19583 8.20525C11.5771 6.34525 12.9449 5.7045 16.2836 5.50312L16.2871 0.655396C7.60364 0.776223 0.635159 7.8684 0.628145 16.9927C0.624638 26.0694 7.61065 33.2787 16.2871 33.3409Z" stroke="black" stroke-width="2.00108" stroke-miterlimit="2.61313" stroke-linecap="round" stroke-linejoin="round"/>
<path fill-rule="evenodd" clip-rule="evenodd" d="M16.2836 5.50311L16.2906 10.3435C18.4123 10.5083 19.489 11.0099 20.748 12.317L21.8141 13.485L25.0301 10.0872C24.7566 9.50871 23.9043 8.71784 23.4765 8.28946C21.7265 6.53197 18.8367 5.55437 16.28 5.50311H16.2836Z" stroke="black" stroke-width="2.00108" stroke-miterlimit="2.61313" stroke-linecap="round" stroke-linejoin="round"/>
<path fill-rule="evenodd" clip-rule="evenodd" d="M16.2871 28.4932C18.8332 28.5005 21.7019 27.4277 23.4204 25.7581C23.8272 25.3627 24.7811 24.5059 25.0196 23.9311L21.7861 20.5406C21.502 20.7346 20.7024 22.0161 19.5802 22.6862C18.3246 23.4368 17.8477 23.4295 16.2836 23.6748L16.2871 28.4932Z" stroke="black" stroke-width="2.00108" stroke-miterlimit="2.61313" stroke-linecap="round" stroke-linejoin="round"/>
</svg>
