<svg width="65" height="64" viewBox="0 0 65 64" fill="none" xmlns="http://www.w3.org/2000/svg">
<path d="M5.83331 13.3333L24.268 23.7989C31.0032 27.6226 33.9968 27.6226 40.732 23.7989L59.1666 13.3333" stroke="black" stroke-opacity="0.7" stroke-width="2.5" stroke-linejoin="round"/>
<path d="M32.5 52.0001C32.5 52.0001 27.3509 51.9676 24.7635 51.9025C16.3675 51.6916 12.1695 51.5862 9.15321 48.5585C6.13686 45.5305 6.04969 41.4433 5.87537 33.2684C5.81931 30.6398 5.81929 28.027 5.87534 25.3984C6.04969 17.2237 6.13683 13.1363 9.15318 10.1085C12.1695 7.08064 16.3675 6.97518 24.7635 6.76424C29.9381 6.63424 35.0618 6.63424 40.2365 6.76427C48.6325 6.97523 52.8304 7.0807 55.8469 10.1085C58.8632 13.1363 58.9504 17.2237 59.1245 25.3985C59.1525 26.7126 59.1666 28.023 59.1666 29.3334" stroke="black" stroke-opacity="0.7" stroke-width="2.5" stroke-linecap="round" stroke-linejoin="round"/>
<path d="M59.1667 45.3333V38.6667C53.8333 38.6667 49.8333 36 49.8333 36C49.8333 36 45.8333 38.6667 40.5 38.6667V45.3333C40.5 54.6667 49.8333 57.3333 49.8333 57.3333C49.8333 57.3333 59.1667 54.6667 59.1667 45.3333Z" stroke="black" stroke-opacity="0.7" stroke-width="2.5" stroke-linecap="round" stroke-linejoin="round"/>
</svg>
