<svg width="34" height="34" viewBox="0 0 34 34" fill="none" xmlns="http://www.w3.org/2000/svg">
    <path
        d="M8.65712 18.778C8.91868 18.5371 9.04947 18.4167 9.20825 18.4167C9.36703 18.4167 9.49782 18.5371 9.75937 18.778L10.769 19.7082C10.891 19.8206 10.9519 19.8768 11.0277 19.9046C11.1035 19.9325 11.1863 19.9292 11.352 19.9227L12.7161 19.8692C13.0674 19.8553 13.243 19.8485 13.3634 19.9496C13.4839 20.0508 13.5073 20.225 13.5542 20.5734L13.7421 21.9692C13.7638 22.1306 13.7747 22.2112 13.814 22.28C13.8533 22.3489 13.9172 22.3992 14.0451 22.4999L15.1438 23.3648C15.4157 23.5788 15.5517 23.6858 15.5786 23.8388C15.6055 23.9918 15.5143 24.1387 15.3318 24.4328L14.5866 25.6336C14.5013 25.771 14.4588 25.8397 14.4452 25.9173C14.4316 25.9948 14.4485 26.074 14.4822 26.2321L14.7779 27.6182C14.8504 27.9588 14.8868 28.129 14.8088 28.2643C14.7308 28.3995 14.5652 28.4535 14.2342 28.5613L12.9227 28.9884C12.7664 29.0392 12.6883 29.0647 12.6272 29.1165C12.5662 29.1683 12.5284 29.2413 12.4527 29.3872L11.8121 30.6218C11.6488 30.9364 11.5672 31.0937 11.4184 31.148C11.2696 31.2022 11.1059 31.1344 10.7785 30.9985L9.51986 30.4765C9.36611 30.4127 9.28924 30.3808 9.20825 30.3808C9.12726 30.3808 9.05039 30.4127 8.89664 30.4765L7.63804 30.9985C7.31062 31.1344 7.14691 31.2022 6.99812 31.148C6.84933 31.0937 6.7677 30.9364 6.60444 30.6218L5.96384 29.3872C5.88814 29.2413 5.85028 29.1683 5.78925 29.1165C5.72821 29.0647 5.65005 29.0392 5.49375 28.9884L4.18228 28.5613C3.85121 28.4535 3.68567 28.3995 3.60771 28.2643C3.52975 28.129 3.56605 27.9588 3.63867 27.6182L3.93423 26.2321C3.96794 26.074 3.9848 25.9948 3.97127 25.9173C3.95773 25.8397 3.9151 25.771 3.82985 25.6336L3.08465 24.4328C2.9022 24.1387 2.81097 23.9918 2.8379 23.8388C2.86483 23.6858 3.00077 23.5788 3.27267 23.3648L4.37137 22.4999C4.49925 22.3992 4.56318 22.3489 4.6025 22.28C4.64182 22.2112 4.65267 22.1306 4.67438 21.9692L4.86228 20.5734C4.90918 20.225 4.93262 20.0508 5.05307 19.9496C5.1735 19.8485 5.34911 19.8553 5.70036 19.8692L7.06445 19.9227C7.23017 19.9292 7.31305 19.9325 7.3888 19.9046C7.46456 19.8768 7.52555 19.8206 7.64752 19.7082L8.65712 18.778Z"
        stroke="black" stroke-opacity="0.7" stroke-width="2.125" />
    <path d="M9.20841 12.75H7.79175M14.8751 12.75H13.4584M9.20841 8.5H7.79175M14.8751 8.5H13.4584" stroke="black"
        stroke-opacity="0.7" stroke-width="2.125" stroke-linecap="round" />
    <path d="M26.2084 21.25H24.7917M26.2084 15.5833H24.7917" stroke="black" stroke-opacity="0.7" stroke-width="2.125"
        stroke-linecap="round" />
    <path
        d="M19.8333 11.3333V31.1667H25.4999C28.1712 31.1667 29.5068 31.1667 30.3367 30.3368C31.1666 29.5069 31.1666 28.1713 31.1666 25.5V17C31.1666 14.3287 31.1666 12.9931 30.3367 12.1632C29.5068 11.3333 28.1712 11.3333 25.4999 11.3333H19.8333ZM19.8333 11.3333C19.8333 7.3264 19.8333 5.32294 18.5884 4.07814C17.3436 2.83334 15.3402 2.83334 11.3333 2.83334C7.32631 2.83334 5.32285 2.83334 4.07805 4.07814C2.83325 5.32294 2.83325 7.3264 2.83325 11.3333V15.5833"
        stroke="black" stroke-opacity="0.7" stroke-width="2.125" stroke-linecap="round" stroke-linejoin="round" />
</svg>