<svg width="20" height="20" viewBox="0 0 20 20" fill="none" xmlns="http://www.w3.org/2000/svg">
<path d="M11.6667 18.3333V6.66663C11.6667 4.3096 11.6667 3.13109 10.9344 2.39886C10.2022 1.66663 9.02369 1.66663 6.66669 1.66663C4.30966 1.66663 3.13115 1.66663 2.39892 2.39886C1.66669 3.13109 1.66669 4.3096 1.66669 6.66663V13.3333C1.66669 15.6903 1.66669 16.8688 2.39892 17.601C3.13115 18.3333 4.30966 18.3333 6.66669 18.3333H11.6667Z" stroke="black" stroke-opacity="0.7" stroke-width="1.25" stroke-linecap="round"/>
<path d="M5.41665 9.16671H4.58331M8.74998 9.16671H7.91665M5.41665 5.83337H4.58331M5.41665 12.5H4.58331M8.74998 5.83337H7.91665M8.74998 12.5H7.91665" stroke="black" stroke-opacity="0.7" stroke-width="1.25" stroke-linecap="round"/>
<path d="M15.4166 12.5H14.5833M15.4166 9.16663H14.5833" stroke="black" stroke-opacity="0.7" stroke-width="1.25" stroke-linecap="round"/>
<path d="M15 6.66663H11.6667V18.3333H15C16.5714 18.3333 17.357 18.3333 17.8452 17.8451C18.3334 17.357 18.3334 16.5713 18.3334 15V9.99996C18.3334 8.42863 18.3334 7.64293 17.8452 7.15478C17.357 6.66663 16.5714 6.66663 15 6.66663Z" stroke="black" stroke-opacity="0.7" stroke-width="1.25" stroke-linecap="round"/>
</svg>
