<svg width="34" height="34" viewBox="0 0 34 34" fill="none" xmlns="http://www.w3.org/2000/svg">
    <path
        d="M18.4166 31.1667H9.33699C7.1477 31.1667 5.40636 30.1013 3.84285 28.6118C0.642188 25.5625 5.89722 23.1257 7.90148 21.9323C10.6682 20.2848 13.8729 19.6072 16.9999 19.8993"
        stroke="black" stroke-opacity="0.7" stroke-width="2.125" stroke-linecap="round" stroke-linejoin="round" />
    <path
        d="M21.9583 9.20834C21.9583 12.7292 19.1041 15.5833 15.5833 15.5833C12.0624 15.5833 9.20825 12.7292 9.20825 9.20834C9.20825 5.68753 12.0624 2.83334 15.5833 2.83334C19.1041 2.83334 21.9583 5.68753 21.9583 9.20834Z"
        stroke="black" stroke-opacity="0.7" stroke-width="2.125" />
    <path
        d="M28.8999 28.9L31.1666 31.1667M30.0333 24.9333C30.0333 22.1167 27.7499 19.8333 24.9333 19.8333C22.1166 19.8333 19.8333 22.1167 19.8333 24.9333C19.8333 27.75 22.1166 30.0333 24.9333 30.0333C27.7499 30.0333 30.0333 27.75 30.0333 24.9333Z"
        stroke="black" stroke-opacity="0.7" stroke-width="2.125" stroke-linecap="round" stroke-linejoin="round" />
</svg>